<mxfile host="app.diagrams.net" modified="2023-07-19T19:31:45.558Z" agent="Mozilla/5.0 (X11; Linux x86_64) AppleWebKit/537.36 (KHTML, like Gecko) Chrome/114.0.0.0 Safari/537.36 OPR/100.0.0.0" version="21.6.3" etag="jfuMp0R9yVFUr-1RcIat" type="github">
  <diagram name="Page-1" id="Bykd0FHesQzVRtdb3EV1">
    <mxGraphModel>
      <root>
        <mxCell id="0" />
        <mxCell id="1" parent="0" />
      </root>
    </mxGraphModel>
  </diagram>
</mxfile>
